<svg width="111" height="29" viewBox="0 0 111 29" fill="none" xmlns="http://www.w3.org/2000/svg">
<circle cx="14.2491" cy="14.3885" r="3.47611" fill="#FB9333"/>
<circle cx="34.8531" cy="14.3885" r="3.47611" fill="#FB9333"/>
<circle cx="55.4571" cy="14.3885" r="3.47611" fill="#FB9333"/>
<circle cx="76.0611" cy="14.3885" r="3.47611" fill="#FB9333"/>
<circle cx="96.6651" cy="14.3885" r="3.47611" fill="#FB9333"/>
<g filter="url(#filter0_f)">
<circle r="6.84199" transform="matrix(-1 0 0 1 14.2493 14.3886)" fill="#C6FF4D"/>
</g>
<g filter="url(#filter1_f)">
<circle r="6.84199" transform="matrix(-1 0 0 1 34.8533 14.3886)" fill="#C6FF4D"/>
</g>
<g filter="url(#filter2_f)">
<circle r="6.84199" transform="matrix(-1 0 0 1 55.4573 14.3886)" fill="#C6FF4D"/>
</g>
<g filter="url(#filter3_f)">
<circle r="6.84199" transform="matrix(-1 0 0 1 76.0613 14.3886)" fill="#C6FF4D"/>
</g>
<g filter="url(#filter4_f)">
<circle r="6.84199" transform="matrix(-1 0 0 1 96.6653 14.3886)" fill="#C6FF4D"/>
</g>
<defs>
<filter id="filter0_f" x="0.407349" y="0.546631" width="27.684" height="27.684" filterUnits="userSpaceOnUse" color-interpolation-filters="sRGB">
<feFlood flood-opacity="0" result="BackgroundImageFix"/>
<feBlend mode="normal" in="SourceGraphic" in2="BackgroundImageFix" result="shape"/>
<feGaussianBlur stdDeviation="3.5" result="effect1_foregroundBlur"/>
</filter>
<filter id="filter1_f" x="21.0114" y="0.546631" width="27.684" height="27.684" filterUnits="userSpaceOnUse" color-interpolation-filters="sRGB">
<feFlood flood-opacity="0" result="BackgroundImageFix"/>
<feBlend mode="normal" in="SourceGraphic" in2="BackgroundImageFix" result="shape"/>
<feGaussianBlur stdDeviation="3.5" result="effect1_foregroundBlur"/>
</filter>
<filter id="filter2_f" x="41.6154" y="0.546631" width="27.684" height="27.684" filterUnits="userSpaceOnUse" color-interpolation-filters="sRGB">
<feFlood flood-opacity="0" result="BackgroundImageFix"/>
<feBlend mode="normal" in="SourceGraphic" in2="BackgroundImageFix" result="shape"/>
<feGaussianBlur stdDeviation="3.5" result="effect1_foregroundBlur"/>
</filter>
<filter id="filter3_f" x="62.2194" y="0.546631" width="27.684" height="27.684" filterUnits="userSpaceOnUse" color-interpolation-filters="sRGB">
<feFlood flood-opacity="0" result="BackgroundImageFix"/>
<feBlend mode="normal" in="SourceGraphic" in2="BackgroundImageFix" result="shape"/>
<feGaussianBlur stdDeviation="3.5" result="effect1_foregroundBlur"/>
</filter>
<filter id="filter4_f" x="82.8234" y="0.546631" width="27.684" height="27.684" filterUnits="userSpaceOnUse" color-interpolation-filters="sRGB">
<feFlood flood-opacity="0" result="BackgroundImageFix"/>
<feBlend mode="normal" in="SourceGraphic" in2="BackgroundImageFix" result="shape"/>
<feGaussianBlur stdDeviation="3.5" result="effect1_foregroundBlur"/>
</filter>
</defs>
</svg>
