<svg width="157" height="86" viewBox="0 0 157 86" fill="none" xmlns="http://www.w3.org/2000/svg">
<g filter="url(#filter0_f)">
<path d="M39.7024 75.9454C56.1071 75.9454 69.4058 61.1619 69.4058 42.9255H9.99902C9.99902 61.1619 23.2977 75.9454 39.7024 75.9454Z" fill="#D0C3B9" fill-opacity="0.34"/>
</g>
<g filter="url(#filter1_f)">
<path d="M117.036 75.9454C133.441 75.9454 146.74 61.1619 146.74 42.9255H87.333C87.333 61.1619 100.632 75.9454 117.036 75.9454Z" fill="#D0C3B9" fill-opacity="0.34"/>
</g>
<circle cx="39.7025" cy="39.7017" r="29.7032" transform="rotate(90 39.7025 39.7017)" fill="#FB9333"/>
<circle cx="117.037" cy="39.7017" r="29.7032" transform="rotate(90 117.037 39.7017)" fill="#FB9333"/>
<circle cx="39.7022" cy="39.7017" r="29.7032" transform="rotate(90 39.7022 39.7017)" fill="#FB9333"/>
<circle cx="116.822" cy="39.7013" r="27.0966" transform="rotate(-90 116.822 39.7013)" fill="url(#paint0_linear)"/>
<circle cx="39.4875" cy="39.7013" r="27.0966" transform="rotate(-90 39.4875 39.7013)" fill="url(#paint1_linear)"/>
<circle cx="117.037" cy="39.7019" r="27.6019" transform="rotate(-120.3 117.037 39.7019)" stroke="#EFEFEF" stroke-width="2"/>
<circle cx="39.7023" cy="39.7019" r="27.6019" transform="rotate(-120.3 39.7023 39.7019)" stroke="#EFEFEF" stroke-width="2"/>
<circle cx="117.037" cy="39.7012" r="22.6386" transform="rotate(-43.4771 117.037 39.7012)" fill="#FB9333"/>
<circle cx="39.7023" cy="39.7012" r="22.6386" transform="rotate(-43.4771 39.7023 39.7012)" fill="#FB9333"/>
<path d="M113.813 35.5228L113.813 26.5469L116.898 23.4624L119.982 26.5469L119.982 35.5228L116.898 38.6073L113.813 35.5228ZM118.255 39.7486L121.339 36.6641L130.346 36.6641L133.431 39.7486L130.346 42.8331L121.463 42.8331L118.255 39.7486ZM100.642 39.7486L103.727 36.6641L112.703 36.6641L115.787 39.7486L112.703 42.8331L103.819 42.8331L100.642 39.7486ZM120.198 52.8578L120.198 43.9744L117.114 40.8899L114.029 43.9744L114.029 52.8578L117.114 55.9423L120.198 52.8578Z" fill="white"/>
<path d="M47.722 42.7864H31.5592L28.4747 39.7019L31.5592 36.6174H47.8454L50.9299 39.7019L47.722 42.7864Z" fill="white"/>
<defs>
<filter id="filter0_f" x="-0.000976562" y="32.9255" width="79.4067" height="53.0198" filterUnits="userSpaceOnUse" color-interpolation-filters="sRGB">
<feFlood flood-opacity="0" result="BackgroundImageFix"/>
<feBlend mode="normal" in="SourceGraphic" in2="BackgroundImageFix" result="shape"/>
<feGaussianBlur stdDeviation="5" result="effect1_foregroundBlur"/>
</filter>
<filter id="filter1_f" x="77.333" y="32.9255" width="79.4067" height="53.0198" filterUnits="userSpaceOnUse" color-interpolation-filters="sRGB">
<feFlood flood-opacity="0" result="BackgroundImageFix"/>
<feBlend mode="normal" in="SourceGraphic" in2="BackgroundImageFix" result="shape"/>
<feGaussianBlur stdDeviation="5" result="effect1_foregroundBlur"/>
</filter>
<linearGradient id="paint0_linear" x1="91.4829" y1="39.7013" x2="143.918" y2="39.7013" gradientUnits="userSpaceOnUse">
<stop offset="0.209931" stop-color="#F48E2F"/>
<stop offset="0.941689" stop-color="#FFB672"/>
</linearGradient>
<linearGradient id="paint1_linear" x1="14.1487" y1="39.7013" x2="66.5839" y2="39.7013" gradientUnits="userSpaceOnUse">
<stop offset="0.209931" stop-color="#F48E2F"/>
<stop offset="0.941689" stop-color="#FFB672"/>
</linearGradient>
</defs>
</svg>
